<?xml version="1.0" encoding="UTF-8" standalone="no"?>
<!DOCTYPE svg PUBLIC "-//W3C//DTD SVG 1.1//EN"
 "http://www.w3.org/Graphics/SVG/1.1/DTD/svg11.dtd">
<!-- Generated by graphviz version 2.47.0 (20210316.0004)
 -->
<!-- Title: dependencies Pages: 1 -->
<svg width="758pt" height="211pt"
 viewBox="0.00 0.00 758.00 211.00" xmlns="http://www.w3.org/2000/svg" xmlns:xlink="http://www.w3.org/1999/xlink">
<g id="graph0" class="graph" transform="scale(1 1) rotate(0) translate(4 207)">
<title>dependencies</title>
<polygon fill="white" stroke="transparent" points="-4,4 -4,-207 754,-207 754,4 -4,4"/>
<text text-anchor="start" x="354.01" y="-42.4" font-family="Times-12" font-weight="bold" font-size="14.00">Legend</text>
<polygon fill="#ffffb3" stroke="transparent" points="141,-10 141,-30 161,-30 161,-10 141,-10"/>
<text text-anchor="start" x="164.63" y="-15.4" font-family="Times-12" font-size="14.00"> &#160;Declarations</text>
<polygon fill="#8dd3c7" stroke="transparent" points="254,-10 254,-30 274,-30 274,-10 254,-10"/>
<text text-anchor="start" x="277.73" y="-15.4" font-family="Times-12" font-size="14.00"> &#160;Module</text>
<polygon fill="#80b1d3" stroke="transparent" points="340,-10 340,-30 360,-30 360,-10 340,-10"/>
<text text-anchor="start" x="363.78" y="-15.4" font-family="Times-12" font-size="14.00"> &#160;Bootstrap</text>
<polygon fill="#fdb462" stroke="transparent" points="437,-10 437,-30 457,-30 457,-10 437,-10"/>
<text text-anchor="start" x="460.67" y="-15.4" font-family="Times-12" font-size="14.00"> &#160;Providers</text>
<polygon fill="#fb8072" stroke="transparent" points="533,-10 533,-30 553,-30 553,-10 533,-10"/>
<text text-anchor="start" x="556.73" y="-15.4" font-family="Times-12" font-size="14.00"> &#160;Exports</text>
<g id="clust1" class="cluster">
<title>cluster_AppModule</title>
<polygon fill="none" stroke="black" stroke-dasharray="1,5" points="8,-70 8,-195 742,-195 742,-70 8,-70"/>
</g>
<g id="clust3" class="cluster">
<title>cluster_AppModule_imports</title>
<polygon fill="none" stroke="black" points="154,-78 154,-130 734,-130 734,-78 154,-78"/>
</g>
<g id="clust6" class="cluster">
<title>cluster_AppModule_providers</title>
<polygon fill="none" stroke="black" points="16,-78 16,-130 146,-130 146,-78 16,-78"/>
</g>
<!-- EquipmentsModule -->
<g id="node1" class="node">
<title>EquipmentsModule</title>
<polygon fill="#8dd3c7" stroke="black" points="726.43,-122 723.43,-126 702.43,-126 699.43,-122 599.57,-122 599.57,-86 726.43,-86 726.43,-122"/>
<text text-anchor="middle" x="663" y="-99.8" font-family="Times,serif" font-size="14.00">EquipmentsModule</text>
</g>
<!-- AppModule -->
<g id="node5" class="node">
<title>AppModule</title>
<polygon fill="#8dd3c7" stroke="black" points="365.66,-187 362.66,-191 341.66,-191 338.66,-187 282.34,-187 282.34,-151 365.66,-151 365.66,-187"/>
<text text-anchor="middle" x="324" y="-164.8" font-family="Times,serif" font-size="14.00">AppModule</text>
</g>
<!-- EquipmentsModule&#45;&gt;AppModule -->
<g id="edge1" class="edge">
<title>EquipmentsModule&#45;&gt;AppModule</title>
<path fill="none" stroke="black" d="M663,-122.28C663,-143.32 663,-175 663,-175 663,-175 375.91,-175 375.91,-175"/>
<polygon fill="black" stroke="black" points="375.91,-171.5 365.91,-175 375.91,-178.5 375.91,-171.5"/>
</g>
<!-- EquipmentspropertiesModule -->
<g id="node2" class="node">
<title>EquipmentspropertiesModule</title>
<polygon fill="#8dd3c7" stroke="black" points="582.41,-122 579.41,-126 558.41,-126 555.41,-122 399.59,-122 399.59,-86 582.41,-86 582.41,-122"/>
<text text-anchor="middle" x="491" y="-99.8" font-family="Times,serif" font-size="14.00">EquipmentspropertiesModule</text>
</g>
<!-- EquipmentspropertiesModule&#45;&gt;AppModule -->
<g id="edge2" class="edge">
<title>EquipmentspropertiesModule&#45;&gt;AppModule</title>
<path fill="none" stroke="black" d="M491,-122.02C491,-139.37 491,-163 491,-163 491,-163 375.71,-163 375.71,-163"/>
<polygon fill="black" stroke="black" points="375.71,-159.5 365.71,-163 375.71,-166.5 375.71,-159.5"/>
</g>
<!-- PropertiesModule -->
<g id="node3" class="node">
<title>PropertiesModule</title>
<polygon fill="#8dd3c7" stroke="black" points="382.31,-122 379.31,-126 358.31,-126 355.31,-122 265.69,-122 265.69,-86 382.31,-86 382.31,-122"/>
<text text-anchor="middle" x="324" y="-99.8" font-family="Times,serif" font-size="14.00">PropertiesModule</text>
</g>
<!-- PropertiesModule&#45;&gt;AppModule -->
<g id="edge3" class="edge">
<title>PropertiesModule&#45;&gt;AppModule</title>
<path fill="none" stroke="black" d="M324,-122.11C324,-122.11 324,-140.99 324,-140.99"/>
<polygon fill="black" stroke="black" points="320.5,-140.99 324,-150.99 327.5,-140.99 320.5,-140.99"/>
</g>
<!-- UserModule -->
<g id="node4" class="node">
<title>UserModule</title>
<polygon fill="#8dd3c7" stroke="black" points="247.98,-122 244.98,-126 223.98,-126 220.98,-122 162.02,-122 162.02,-86 247.98,-86 247.98,-122"/>
<text text-anchor="middle" x="205" y="-99.8" font-family="Times,serif" font-size="14.00">UserModule</text>
</g>
<!-- UserModule&#45;&gt;AppModule -->
<g id="edge4" class="edge">
<title>UserModule&#45;&gt;AppModule</title>
<path fill="none" stroke="black" d="M205,-122.02C205,-139.37 205,-163 205,-163 205,-163 272.05,-163 272.05,-163"/>
<polygon fill="black" stroke="black" points="272.05,-166.5 282.05,-163 272.05,-159.5 272.05,-166.5"/>
</g>
<!-- AppService -->
<g id="node6" class="node">
<title>AppService</title>
<ellipse fill="#fdb462" stroke="black" cx="81" cy="-104" rx="56.74" ry="18"/>
<text text-anchor="middle" x="81" y="-99.8" font-family="Times,serif" font-size="14.00">AppService</text>
</g>
<!-- AppService&#45;&gt;AppModule -->
<g id="edge5" class="edge">
<title>AppService&#45;&gt;AppModule</title>
<path fill="none" stroke="black" d="M81,-122.28C81,-143.32 81,-175 81,-175 81,-175 272.23,-175 272.23,-175"/>
<polygon fill="black" stroke="black" points="272.23,-178.5 282.23,-175 272.23,-171.5 272.23,-178.5"/>
</g>
</g>
</svg>
