<?xml version="1.0" encoding="UTF-8" standalone="no"?>
<!DOCTYPE svg PUBLIC "-//W3C//DTD SVG 1.1//EN"
 "http://www.w3.org/Graphics/SVG/1.1/DTD/svg11.dtd">
<!-- Generated by graphviz version 2.47.0 (20210316.0004)
 -->
<!-- Title: dependencies Pages: 1 -->
<svg width="1190pt" height="298pt"
 viewBox="0.00 0.00 1190.00 298.00" xmlns="http://www.w3.org/2000/svg" xmlns:xlink="http://www.w3.org/1999/xlink">
<g id="graph0" class="graph" transform="scale(1 1) rotate(0) translate(4 294)">
<title>dependencies</title>
<polygon fill="white" stroke="transparent" points="-4,4 -4,-294 1186,-294 1186,4 -4,4"/>
<text text-anchor="start" x="570.01" y="-42.4" font-family="Times-12" font-weight="bold" font-size="14.00">Legend</text>
<polygon fill="#ffffb3" stroke="transparent" points="357,-10 357,-30 377,-30 377,-10 357,-10"/>
<text text-anchor="start" x="380.63" y="-15.4" font-family="Times-12" font-size="14.00"> &#160;Declarations</text>
<polygon fill="#8dd3c7" stroke="transparent" points="470,-10 470,-30 490,-30 490,-10 470,-10"/>
<text text-anchor="start" x="493.73" y="-15.4" font-family="Times-12" font-size="14.00"> &#160;Module</text>
<polygon fill="#80b1d3" stroke="transparent" points="556,-10 556,-30 576,-30 576,-10 556,-10"/>
<text text-anchor="start" x="579.78" y="-15.4" font-family="Times-12" font-size="14.00"> &#160;Bootstrap</text>
<polygon fill="#fdb462" stroke="transparent" points="653,-10 653,-30 673,-30 673,-10 653,-10"/>
<text text-anchor="start" x="676.67" y="-15.4" font-family="Times-12" font-size="14.00"> &#160;Providers</text>
<polygon fill="#fb8072" stroke="transparent" points="749,-10 749,-30 769,-30 769,-10 749,-10"/>
<text text-anchor="start" x="772.73" y="-15.4" font-family="Times-12" font-size="14.00"> &#160;Exports</text>
<g id="clust1" class="cluster">
<title>cluster_AppModule</title>
<polygon fill="none" stroke="black" stroke-dasharray="1,5" points="8,-146 8,-274 542,-274 542,-146 8,-146"/>
</g>
<g id="clust3" class="cluster">
<title>cluster_AppModule_imports</title>
<polygon fill="none" stroke="black" points="154,-154 154,-206 534,-206 534,-154 154,-154"/>
</g>
<g id="clust6" class="cluster">
<title>cluster_AppModule_providers</title>
<polygon fill="none" stroke="black" points="16,-154 16,-206 146,-206 146,-154 16,-154"/>
</g>
<g id="clust7" class="cluster">
<title>cluster_EquipmentsModule</title>
<polygon fill="none" stroke="black" stroke-dasharray="1,5" points="550,-214 550,-282 906,-282 906,-214 550,-214"/>
</g>
<g id="clust10" class="cluster">
<title>cluster_EquipmentsModule_exports</title>
<polygon fill="none" stroke="black" points="754,-222 754,-274 898,-274 898,-222 754,-222"/>
</g>
<g id="clust12" class="cluster">
<title>cluster_EquipmentsModule_providers</title>
<polygon fill="none" stroke="black" points="558,-222 558,-274 746,-274 746,-222 558,-222"/>
</g>
<g id="clust13" class="cluster">
<title>cluster_PropertiesModule</title>
<polygon fill="none" stroke="black" stroke-dasharray="1,5" points="125,-70 125,-138 315,-138 315,-70 125,-70"/>
</g>
<g id="clust18" class="cluster">
<title>cluster_PropertiesModule_providers</title>
<polygon fill="none" stroke="black" points="133,-78 133,-130 307,-130 307,-78 133,-78"/>
</g>
<g id="clust19" class="cluster">
<title>cluster_UserModule</title>
<polygon fill="none" stroke="black" stroke-dasharray="1,5" points="914,-214 914,-282 1174,-282 1174,-214 914,-214"/>
</g>
<g id="clust22" class="cluster">
<title>cluster_UserModule_exports</title>
<polygon fill="none" stroke="black" points="1062,-222 1062,-274 1166,-274 1166,-222 1062,-222"/>
</g>
<g id="clust24" class="cluster">
<title>cluster_UserModule_providers</title>
<polygon fill="none" stroke="black" points="922,-222 922,-274 1054,-274 1054,-222 922,-222"/>
</g>
<!-- EquipmentsModule -->
<g id="node1" class="node">
<title>EquipmentsModule</title>
<polygon fill="#8dd3c7" stroke="black" points="422.43,-198 419.43,-202 398.43,-202 395.43,-198 295.57,-198 295.57,-162 422.43,-162 422.43,-198"/>
<text text-anchor="middle" x="359" y="-175.8" font-family="Times,serif" font-size="14.00">EquipmentsModule</text>
</g>
<!-- AppModule -->
<g id="node4" class="node">
<title>AppModule</title>
<polygon fill="#8dd3c7" stroke="black" points="330.66,-266 327.66,-270 306.66,-270 303.66,-266 247.34,-266 247.34,-230 330.66,-230 330.66,-266"/>
<text text-anchor="middle" x="289" y="-243.8" font-family="Times,serif" font-size="14.00">AppModule</text>
</g>
<!-- EquipmentsModule&#45;&gt;AppModule -->
<g id="edge1" class="edge">
<title>EquipmentsModule&#45;&gt;AppModule</title>
<path fill="none" stroke="black" d="M313.31,-198.22C313.31,-198.22 313.31,-219.73 313.31,-219.73"/>
<polygon fill="black" stroke="black" points="309.81,-219.73 313.31,-229.73 316.81,-219.73 309.81,-219.73"/>
</g>
<!-- EquipmentsService  -->
<g id="node6" class="node">
<title>EquipmentsService </title>
<polygon fill="#fb8072" stroke="black" points="890.36,-266 761.64,-266 761.64,-230 890.36,-230 890.36,-266"/>
<text text-anchor="middle" x="826" y="-243.8" font-family="Times,serif" font-size="14.00">EquipmentsService </text>
</g>
<!-- EquipmentsModule&#45;&gt;EquipmentsService  -->
<g id="edge5" class="edge">
<title>EquipmentsModule&#45;&gt;EquipmentsService </title>
<path fill="none" stroke="black" stroke-dasharray="5,2" d="M361.29,-198.19C361.29,-206.28 361.29,-214 361.29,-214 361.29,-214 826,-214 826,-214 826,-214 826,-219.81 826,-219.81"/>
<polygon fill="black" stroke="black" points="822.5,-219.81 826,-229.81 829.5,-219.81 822.5,-219.81"/>
</g>
<!-- PropertiesModule -->
<g id="node2" class="node">
<title>PropertiesModule</title>
<polygon fill="#8dd3c7" stroke="black" points="278.31,-198 275.31,-202 254.31,-202 251.31,-198 161.69,-198 161.69,-162 278.31,-162 278.31,-198"/>
<text text-anchor="middle" x="220" y="-175.8" font-family="Times,serif" font-size="14.00">PropertiesModule</text>
</g>
<!-- PropertiesModule&#45;&gt;AppModule -->
<g id="edge2" class="edge">
<title>PropertiesModule&#45;&gt;AppModule</title>
<path fill="none" stroke="black" d="M262.66,-198.22C262.66,-198.22 262.66,-219.73 262.66,-219.73"/>
<polygon fill="black" stroke="black" points="259.16,-219.73 262.66,-229.73 266.16,-219.73 259.16,-219.73"/>
</g>
<!-- UserModule -->
<g id="node3" class="node">
<title>UserModule</title>
<polygon fill="#8dd3c7" stroke="black" points="525.98,-198 522.98,-202 501.98,-202 498.98,-198 440.02,-198 440.02,-162 525.98,-162 525.98,-198"/>
<text text-anchor="middle" x="483" y="-175.8" font-family="Times,serif" font-size="14.00">UserModule</text>
</g>
<!-- UserModule&#45;&gt;AppModule -->
<g id="edge3" class="edge">
<title>UserModule&#45;&gt;AppModule</title>
<path fill="none" stroke="black" d="M483,-198.27C483,-216.56 483,-242 483,-242 483,-242 341.1,-242 341.1,-242"/>
<polygon fill="black" stroke="black" points="341.1,-238.5 331.1,-242 341.1,-245.5 341.1,-238.5"/>
</g>
<!-- UserService  -->
<g id="node9" class="node">
<title>UserService </title>
<polygon fill="#fb8072" stroke="black" points="1157.9,-266 1070.1,-266 1070.1,-230 1157.9,-230 1157.9,-266"/>
<text text-anchor="middle" x="1114" y="-243.8" font-family="Times,serif" font-size="14.00">UserService </text>
</g>
<!-- UserModule&#45;&gt;UserService  -->
<g id="edge8" class="edge">
<title>UserModule&#45;&gt;UserService </title>
<path fill="none" stroke="black" stroke-dasharray="5,2" d="M526.37,-174C668.93,-174 1114,-174 1114,-174 1114,-174 1114,-219.71 1114,-219.71"/>
<polygon fill="black" stroke="black" points="1110.5,-219.71 1114,-229.71 1117.5,-219.71 1110.5,-219.71"/>
</g>
<!-- AppService -->
<g id="node5" class="node">
<title>AppService</title>
<ellipse fill="#fdb462" stroke="black" cx="81" cy="-180" rx="56.74" ry="18"/>
<text text-anchor="middle" x="81" y="-175.8" font-family="Times,serif" font-size="14.00">AppService</text>
</g>
<!-- AppService&#45;&gt;AppModule -->
<g id="edge4" class="edge">
<title>AppService&#45;&gt;AppModule</title>
<path fill="none" stroke="black" d="M81,-198.22C81,-218.37 81,-248 81,-248 81,-248 236.91,-248 236.91,-248"/>
<polygon fill="black" stroke="black" points="236.91,-251.5 246.91,-248 236.91,-244.5 236.91,-251.5"/>
</g>
<!-- EquipmentsService -->
<g id="node7" class="node">
<title>EquipmentsService</title>
<ellipse fill="#fdb462" stroke="black" cx="652" cy="-248" rx="86.25" ry="18"/>
<text text-anchor="middle" x="652" y="-243.8" font-family="Times,serif" font-size="14.00">EquipmentsService</text>
</g>
<!-- EquipmentsService&#45;&gt;EquipmentsModule -->
<g id="edge6" class="edge">
<title>EquipmentsService&#45;&gt;EquipmentsModule</title>
<path fill="none" stroke="black" d="M570.73,-254C494.37,-254 391.75,-254 391.75,-254 391.75,-254 391.75,-208.29 391.75,-208.29"/>
<polygon fill="black" stroke="black" points="395.25,-208.29 391.75,-198.29 388.25,-208.29 395.25,-208.29"/>
</g>
<!-- PropertiesService -->
<g id="node8" class="node">
<title>PropertiesService</title>
<ellipse fill="#fdb462" stroke="black" cx="220" cy="-104" rx="79.29" ry="18"/>
<text text-anchor="middle" x="220" y="-99.8" font-family="Times,serif" font-size="14.00">PropertiesService</text>
</g>
<!-- PropertiesService&#45;&gt;PropertiesModule -->
<g id="edge7" class="edge">
<title>PropertiesService&#45;&gt;PropertiesModule</title>
<path fill="none" stroke="black" d="M220,-122.01C220,-122.01 220,-151.85 220,-151.85"/>
<polygon fill="black" stroke="black" points="216.5,-151.85 220,-161.85 223.5,-151.85 216.5,-151.85"/>
</g>
<!-- UserService -->
<g id="node10" class="node">
<title>UserService</title>
<ellipse fill="#fdb462" stroke="black" cx="988" cy="-248" rx="58.44" ry="18"/>
<text text-anchor="middle" x="988" y="-243.8" font-family="Times,serif" font-size="14.00">UserService</text>
</g>
<!-- UserService&#45;&gt;UserModule -->
<g id="edge9" class="edge">
<title>UserService&#45;&gt;UserModule</title>
<path fill="none" stroke="black" d="M988,-229.73C988,-211.44 988,-186 988,-186 988,-186 536.06,-186 536.06,-186"/>
<polygon fill="black" stroke="black" points="536.06,-182.5 526.06,-186 536.06,-189.5 536.06,-182.5"/>
</g>
</g>
</svg>
