<?xml version="1.0" encoding="UTF-8" standalone="no"?>
<!DOCTYPE svg PUBLIC "-//W3C//DTD SVG 1.1//EN"
 "http://www.w3.org/Graphics/SVG/1.1/DTD/svg11.dtd">
<!-- Generated by graphviz version 2.47.0 (20210316.0004)
 -->
<!-- Title: dependencies Pages: 1 -->
<svg width="1888pt" height="298pt"
 viewBox="0.00 0.00 1888.00 298.00" xmlns="http://www.w3.org/2000/svg" xmlns:xlink="http://www.w3.org/1999/xlink">
<g id="graph0" class="graph" transform="scale(1 1) rotate(0) translate(4 294)">
<title>dependencies</title>
<polygon fill="white" stroke="transparent" points="-4,4 -4,-294 1884,-294 1884,4 -4,4"/>
<text text-anchor="start" x="919.01" y="-42.4" font-family="Times-12" font-weight="bold" font-size="14.00">Legend</text>
<polygon fill="#ffffb3" stroke="transparent" points="706,-10 706,-30 726,-30 726,-10 706,-10"/>
<text text-anchor="start" x="729.63" y="-15.4" font-family="Times-12" font-size="14.00"> &#160;Declarations</text>
<polygon fill="#8dd3c7" stroke="transparent" points="819,-10 819,-30 839,-30 839,-10 819,-10"/>
<text text-anchor="start" x="842.73" y="-15.4" font-family="Times-12" font-size="14.00"> &#160;Module</text>
<polygon fill="#80b1d3" stroke="transparent" points="905,-10 905,-30 925,-30 925,-10 905,-10"/>
<text text-anchor="start" x="928.78" y="-15.4" font-family="Times-12" font-size="14.00"> &#160;Bootstrap</text>
<polygon fill="#fdb462" stroke="transparent" points="1002,-10 1002,-30 1022,-30 1022,-10 1002,-10"/>
<text text-anchor="start" x="1025.67" y="-15.4" font-family="Times-12" font-size="14.00"> &#160;Providers</text>
<polygon fill="#fb8072" stroke="transparent" points="1098,-10 1098,-30 1118,-30 1118,-10 1098,-10"/>
<text text-anchor="start" x="1121.73" y="-15.4" font-family="Times-12" font-size="14.00"> &#160;Exports</text>
<g id="clust1" class="cluster">
<title>cluster_AppModule</title>
<polygon fill="none" stroke="black" stroke-dasharray="1,5" points="8,-146 8,-274 742,-274 742,-146 8,-146"/>
</g>
<g id="clust3" class="cluster">
<title>cluster_AppModule_imports</title>
<polygon fill="none" stroke="black" points="154,-154 154,-206 734,-206 734,-154 154,-154"/>
</g>
<g id="clust6" class="cluster">
<title>cluster_AppModule_providers</title>
<polygon fill="none" stroke="black" points="16,-154 16,-206 146,-206 146,-154 16,-154"/>
</g>
<g id="clust7" class="cluster">
<title>cluster_EquipmentsModule</title>
<polygon fill="none" stroke="black" stroke-dasharray="1,5" points="750,-214 750,-282 1106,-282 1106,-214 750,-214"/>
</g>
<g id="clust10" class="cluster">
<title>cluster_EquipmentsModule_exports</title>
<polygon fill="none" stroke="black" points="954,-222 954,-274 1098,-274 1098,-222 954,-222"/>
</g>
<g id="clust12" class="cluster">
<title>cluster_EquipmentsModule_providers</title>
<polygon fill="none" stroke="black" points="758,-222 758,-274 946,-274 946,-222 758,-222"/>
</g>
<g id="clust13" class="cluster">
<title>cluster_EquipmentspropertiesModule</title>
<polygon fill="none" stroke="black" stroke-dasharray="1,5" points="1114,-214 1114,-282 1604,-282 1604,-214 1114,-214"/>
</g>
<g id="clust16" class="cluster">
<title>cluster_EquipmentspropertiesModule_exports</title>
<polygon fill="none" stroke="black" points="1396,-222 1396,-274 1596,-274 1596,-222 1396,-222"/>
</g>
<g id="clust18" class="cluster">
<title>cluster_EquipmentspropertiesModule_providers</title>
<polygon fill="none" stroke="black" points="1122,-222 1122,-274 1388,-274 1388,-222 1122,-222"/>
</g>
<g id="clust19" class="cluster">
<title>cluster_PropertiesModule</title>
<polygon fill="none" stroke="black" stroke-dasharray="1,5" points="125,-70 125,-138 315,-138 315,-70 125,-70"/>
</g>
<g id="clust24" class="cluster">
<title>cluster_PropertiesModule_providers</title>
<polygon fill="none" stroke="black" points="133,-78 133,-130 307,-130 307,-78 133,-78"/>
</g>
<g id="clust25" class="cluster">
<title>cluster_UserModule</title>
<polygon fill="none" stroke="black" stroke-dasharray="1,5" points="1612,-214 1612,-282 1872,-282 1872,-214 1612,-214"/>
</g>
<g id="clust28" class="cluster">
<title>cluster_UserModule_exports</title>
<polygon fill="none" stroke="black" points="1760,-222 1760,-274 1864,-274 1864,-222 1760,-222"/>
</g>
<g id="clust30" class="cluster">
<title>cluster_UserModule_providers</title>
<polygon fill="none" stroke="black" points="1620,-222 1620,-274 1752,-274 1752,-222 1620,-222"/>
</g>
<!-- EquipmentsModule -->
<g id="node1" class="node">
<title>EquipmentsModule</title>
<polygon fill="#8dd3c7" stroke="black" points="422.43,-198 419.43,-202 398.43,-202 395.43,-198 295.57,-198 295.57,-162 422.43,-162 422.43,-198"/>
<text text-anchor="middle" x="359" y="-175.8" font-family="Times,serif" font-size="14.00">EquipmentsModule</text>
</g>
<!-- AppModule -->
<g id="node5" class="node">
<title>AppModule</title>
<polygon fill="#8dd3c7" stroke="black" points="400.66,-266 397.66,-270 376.66,-270 373.66,-266 317.34,-266 317.34,-230 400.66,-230 400.66,-266"/>
<text text-anchor="middle" x="359" y="-243.8" font-family="Times,serif" font-size="14.00">AppModule</text>
</g>
<!-- EquipmentsModule&#45;&gt;AppModule -->
<g id="edge1" class="edge">
<title>EquipmentsModule&#45;&gt;AppModule</title>
<path fill="none" stroke="black" d="M359,-198.22C359,-198.22 359,-219.73 359,-219.73"/>
<polygon fill="black" stroke="black" points="355.5,-219.73 359,-229.73 362.5,-219.73 355.5,-219.73"/>
</g>
<!-- EquipmentsService  -->
<g id="node7" class="node">
<title>EquipmentsService </title>
<polygon fill="#fb8072" stroke="black" points="1090.36,-266 961.64,-266 961.64,-230 1090.36,-230 1090.36,-266"/>
<text text-anchor="middle" x="1026" y="-243.8" font-family="Times,serif" font-size="14.00">EquipmentsService </text>
</g>
<!-- EquipmentsModule&#45;&gt;EquipmentsService  -->
<g id="edge6" class="edge">
<title>EquipmentsModule&#45;&gt;EquipmentsService </title>
<path fill="none" stroke="black" stroke-dasharray="5,2" d="M407.96,-198.06C407.96,-209.44 407.96,-222 407.96,-222 407.96,-222 1026,-222 1026,-222 1026,-222 1026,-222.79 1026,-222.79"/>
<polygon fill="black" stroke="black" points="1022.5,-219.94 1026,-229.94 1029.5,-219.94 1022.5,-219.94"/>
</g>
<!-- EquipmentspropertiesModule -->
<g id="node2" class="node">
<title>EquipmentspropertiesModule</title>
<polygon fill="#8dd3c7" stroke="black" points="622.41,-198 619.41,-202 598.41,-202 595.41,-198 439.59,-198 439.59,-162 622.41,-162 622.41,-198"/>
<text text-anchor="middle" x="531" y="-175.8" font-family="Times,serif" font-size="14.00">EquipmentspropertiesModule</text>
</g>
<!-- EquipmentspropertiesModule&#45;&gt;AppModule -->
<g id="edge2" class="edge">
<title>EquipmentspropertiesModule&#45;&gt;AppModule</title>
<path fill="none" stroke="black" d="M576.6,-198.02C576.6,-215.37 576.6,-239 576.6,-239 576.6,-239 410.7,-239 410.7,-239"/>
<polygon fill="black" stroke="black" points="410.7,-235.5 400.7,-239 410.7,-242.5 410.7,-235.5"/>
</g>
<!-- EquipmentspropertiesService  -->
<g id="node9" class="node">
<title>EquipmentspropertiesService </title>
<polygon fill="#fb8072" stroke="black" points="1588.34,-266 1403.66,-266 1403.66,-230 1588.34,-230 1588.34,-266"/>
<text text-anchor="middle" x="1496" y="-243.8" font-family="Times,serif" font-size="14.00">EquipmentspropertiesService </text>
</g>
<!-- EquipmentspropertiesModule&#45;&gt;EquipmentspropertiesService  -->
<g id="edge8" class="edge">
<title>EquipmentspropertiesModule&#45;&gt;EquipmentspropertiesService </title>
<path fill="none" stroke="black" stroke-dasharray="5,2" d="M485.4,-198.06C485.4,-202.49 485.4,-206 485.4,-206 485.4,-206 1496,-206 1496,-206 1496,-206 1496,-219.94 1496,-219.94"/>
<polygon fill="black" stroke="black" points="1492.5,-219.94 1496,-229.94 1499.5,-219.94 1492.5,-219.94"/>
</g>
<!-- PropertiesModule -->
<g id="node3" class="node">
<title>PropertiesModule</title>
<polygon fill="#8dd3c7" stroke="black" points="278.31,-198 275.31,-202 254.31,-202 251.31,-198 161.69,-198 161.69,-162 278.31,-162 278.31,-198"/>
<text text-anchor="middle" x="220" y="-175.8" font-family="Times,serif" font-size="14.00">PropertiesModule</text>
</g>
<!-- PropertiesModule&#45;&gt;AppModule -->
<g id="edge3" class="edge">
<title>PropertiesModule&#45;&gt;AppModule</title>
<path fill="none" stroke="black" d="M220,-198.27C220,-216.56 220,-242 220,-242 220,-242 307.3,-242 307.3,-242"/>
<polygon fill="black" stroke="black" points="307.3,-245.5 317.3,-242 307.3,-238.5 307.3,-245.5"/>
</g>
<!-- UserModule -->
<g id="node4" class="node">
<title>UserModule</title>
<polygon fill="#8dd3c7" stroke="black" points="725.98,-198 722.98,-202 701.98,-202 698.98,-198 640.02,-198 640.02,-162 725.98,-162 725.98,-198"/>
<text text-anchor="middle" x="683" y="-175.8" font-family="Times,serif" font-size="14.00">UserModule</text>
</g>
<!-- UserModule&#45;&gt;AppModule -->
<g id="edge4" class="edge">
<title>UserModule&#45;&gt;AppModule</title>
<path fill="none" stroke="black" d="M683,-198.22C683,-218.37 683,-248 683,-248 683,-248 410.69,-248 410.69,-248"/>
<polygon fill="black" stroke="black" points="410.69,-244.5 400.69,-248 410.69,-251.5 410.69,-244.5"/>
</g>
<!-- UserService  -->
<g id="node12" class="node">
<title>UserService </title>
<polygon fill="#fb8072" stroke="black" points="1855.9,-266 1768.1,-266 1768.1,-230 1855.9,-230 1855.9,-266"/>
<text text-anchor="middle" x="1812" y="-243.8" font-family="Times,serif" font-size="14.00">UserService </text>
</g>
<!-- UserModule&#45;&gt;UserService  -->
<g id="edge11" class="edge">
<title>UserModule&#45;&gt;UserService </title>
<path fill="none" stroke="black" stroke-dasharray="5,2" d="M726.22,-174C933.08,-174 1812,-174 1812,-174 1812,-174 1812,-219.71 1812,-219.71"/>
<polygon fill="black" stroke="black" points="1808.5,-219.71 1812,-229.71 1815.5,-219.71 1808.5,-219.71"/>
</g>
<!-- AppService -->
<g id="node6" class="node">
<title>AppService</title>
<ellipse fill="#fdb462" stroke="black" cx="81" cy="-180" rx="56.74" ry="18"/>
<text text-anchor="middle" x="81" y="-175.8" font-family="Times,serif" font-size="14.00">AppService</text>
</g>
<!-- AppService&#45;&gt;AppModule -->
<g id="edge5" class="edge">
<title>AppService&#45;&gt;AppModule</title>
<path fill="none" stroke="black" d="M81,-198.29C81,-220.21 81,-254 81,-254 81,-254 307.08,-254 307.08,-254"/>
<polygon fill="black" stroke="black" points="307.08,-257.5 317.08,-254 307.08,-250.5 307.08,-257.5"/>
</g>
<!-- EquipmentsService -->
<g id="node8" class="node">
<title>EquipmentsService</title>
<ellipse fill="#fdb462" stroke="black" cx="852" cy="-248" rx="86.25" ry="18"/>
<text text-anchor="middle" x="852" y="-243.8" font-family="Times,serif" font-size="14.00">EquipmentsService</text>
</g>
<!-- EquipmentsService&#45;&gt;EquipmentsModule -->
<g id="edge7" class="edge">
<title>EquipmentsService&#45;&gt;EquipmentsModule</title>
<path fill="none" stroke="black" d="M777.39,-257C652.6,-257 415.09,-257 415.09,-257 415.09,-257 415.09,-208.25 415.09,-208.25"/>
<polygon fill="black" stroke="black" points="418.59,-208.25 415.09,-198.25 411.59,-208.25 418.59,-208.25"/>
</g>
<!-- EquipmentspropertiesService -->
<g id="node10" class="node">
<title>EquipmentspropertiesService</title>
<ellipse fill="#fdb462" stroke="black" cx="1255" cy="-248" rx="124.98" ry="18"/>
<text text-anchor="middle" x="1255" y="-243.8" font-family="Times,serif" font-size="14.00">EquipmentspropertiesService</text>
</g>
<!-- EquipmentspropertiesService&#45;&gt;EquipmentspropertiesModule -->
<g id="edge9" class="edge">
<title>EquipmentspropertiesService&#45;&gt;EquipmentspropertiesModule</title>
<path fill="none" stroke="black" d="M1255,-229.81C1255,-221.72 1255,-214 1255,-214 1255,-214 531,-214 531,-214 531,-214 531,-208.19 531,-208.19"/>
<polygon fill="black" stroke="black" points="534.5,-208.19 531,-198.19 527.5,-208.19 534.5,-208.19"/>
</g>
<!-- PropertiesService -->
<g id="node11" class="node">
<title>PropertiesService</title>
<ellipse fill="#fdb462" stroke="black" cx="220" cy="-104" rx="79.29" ry="18"/>
<text text-anchor="middle" x="220" y="-99.8" font-family="Times,serif" font-size="14.00">PropertiesService</text>
</g>
<!-- PropertiesService&#45;&gt;PropertiesModule -->
<g id="edge10" class="edge">
<title>PropertiesService&#45;&gt;PropertiesModule</title>
<path fill="none" stroke="black" d="M220,-122.01C220,-122.01 220,-151.85 220,-151.85"/>
<polygon fill="black" stroke="black" points="216.5,-151.85 220,-161.85 223.5,-151.85 216.5,-151.85"/>
</g>
<!-- UserService -->
<g id="node13" class="node">
<title>UserService</title>
<ellipse fill="#fdb462" stroke="black" cx="1686" cy="-248" rx="58.44" ry="18"/>
<text text-anchor="middle" x="1686" y="-243.8" font-family="Times,serif" font-size="14.00">UserService</text>
</g>
<!-- UserService&#45;&gt;UserModule -->
<g id="edge12" class="edge">
<title>UserService&#45;&gt;UserModule</title>
<path fill="none" stroke="black" d="M1686,-229.73C1686,-211.44 1686,-186 1686,-186 1686,-186 736.1,-186 736.1,-186"/>
<polygon fill="black" stroke="black" points="736.1,-182.5 726.1,-186 736.1,-189.5 736.1,-182.5"/>
</g>
</g>
</svg>
